<svg width="20" height="20" viewBox="0 0 20 20" fill="none" xmlns="http://www.w3.org/2000/svg">
<path d="M6.30938 4.79682C6.11118 4.59881 6 4.33141 6 4.05275C6 3.77409 6.11118 3.50669 6.30938 3.30868C6.40671 3.21092 6.52272 3.13328 6.65066 3.08028C6.7786 3.02729 6.91592 3 7.05463 3C7.19333 3 7.33065 3.02729 7.4586 3.08028C7.58654 3.13328 7.70255 3.21092 7.79988 3.30868L13.6911 9.25517C13.889 9.45363 14 9.72121 14 10C14 10.2788 13.889 10.5464 13.6911 10.7448L7.79988 16.6913C7.70255 16.7891 7.58654 16.8667 7.4586 16.9197C7.33065 16.9727 7.19333 17 7.05463 17C6.91592 17 6.7786 16.9727 6.65066 16.9197C6.52272 16.8667 6.40671 16.7891 6.30938 16.6913C6.11118 16.4933 6 16.2259 6 15.9472C6 15.6686 6.11118 15.4012 6.30938 15.2032L11.1408 9.99772L6.30938 4.79682Z" fill="white"/>
</svg>
