<svg width="29" height="29" viewBox="0 0 29 29" fill="none" xmlns="http://www.w3.org/2000/svg">
<path d="M14.3926 28.0742C6.70898 28.0742 0.447266 21.8125 0.447266 14.1289C0.447266 6.43164 6.70898 0.183594 14.3926 0.183594C22.0898 0.183594 28.3379 6.43164 28.3379 14.1289C28.3379 21.8125 22.0898 28.0742 14.3926 28.0742ZM9.79883 19.8711C10.1133 19.8711 10.4004 19.7617 10.6191 19.543L14.3926 15.7422L18.1797 19.543C18.3848 19.7617 18.6719 19.8711 18.9863 19.8711C19.6289 19.8711 20.1348 19.3652 20.1348 18.7363C20.1348 18.4219 20.0254 18.1348 19.793 17.9297L16.0059 14.1426L19.8066 10.3418C20.0527 10.0957 20.1484 9.84961 20.1484 9.53516C20.1484 8.90625 19.6426 8.41406 19.0137 8.41406C18.7129 8.41406 18.4668 8.50977 18.2344 8.74219L14.3926 12.5566L10.5781 8.75586C10.3594 8.55078 10.1133 8.44141 9.79883 8.44141C9.16992 8.44141 8.67773 8.91992 8.67773 9.5625C8.67773 9.86328 8.78711 10.1367 9.00586 10.3555L12.793 14.1426L9.00586 17.9434C8.78711 18.1484 8.67773 18.4355 8.67773 18.7363C8.67773 19.3652 9.16992 19.8711 9.79883 19.8711Z" fill="#BABABA"/>
</svg>
